<?xml version="1.0" encoding="UTF-8" standalone="no"?><svg xmlns="http://www.w3.org/2000/svg" xmlns:xlink="http://www.w3.org/1999/xlink" contentStyleType="text/css" height="130px" preserveAspectRatio="none" style="width:769px;height:130px;background:#FFFFFF;" version="1.1" viewBox="0 0 769 130" width="769px" zoomAndPan="magnify"><defs/><g><rect fill="#F1F1F1" height="43.2188" rx="5" ry="5" style="stroke:#F1F1F1;stroke-width:1.5;" width="166" x="10" y="31.5"/><text fill="#000000" font-family="sans-serif" font-size="14" font-weight="bold" lengthAdjust="spacing" textLength="13" x="15" y="48.0332">id</text><text fill="#000000" font-family="sans-serif" font-size="14" lengthAdjust="spacing" textLength="81" x="90" y="48.0332">Performance</text><line style="stroke:#000000;stroke-width:1.0;" x1="85" x2="85" y1="31.5" y2="53.1094"/><line style="stroke:#000000;stroke-width:1.0;" x1="10" x2="176" y1="53.1094" y2="53.1094"/><text fill="#000000" font-family="sans-serif" font-size="14" font-weight="bold" lengthAdjust="spacing" textLength="65" x="15" y="69.6426">Counters</text><text fill="#000000" font-family="sans-serif" font-size="14" lengthAdjust="spacing" textLength="12" x="90" y="69.6426">   </text><line style="stroke:#000000;stroke-width:1.0;" x1="85" x2="85" y1="53.1094" y2="74.7188"/><rect fill="none" height="43.2188" rx="5" ry="5" style="stroke:#000000;stroke-width:1.5;" width="166" x="10" y="31.5"/><rect fill="#F1F1F1" height="108.0469" rx="5" ry="5" style="stroke:#F1F1F1;stroke-width:1.5;" width="187" x="213" y="10"/><text fill="#000000" font-family="sans-serif" font-size="14" font-weight="bold" lengthAdjust="spacing" textLength="65" x="218" y="26.5332">Counter1</text><text fill="#000000" font-family="sans-serif" font-size="14" lengthAdjust="spacing" textLength="3" x="295" y="26.5332">'</text><text fill="#000000" font-family="sans-serif" font-size="14" font-style="italic" lengthAdjust="spacing" textLength="94" x="298" y="26.5332">simple function</text><text fill="#000000" font-family="sans-serif" font-size="14" lengthAdjust="spacing" textLength="3" x="392" y="26.5332">'</text><line style="stroke:#000000;stroke-width:1.0;" x1="290" x2="290" y1="10" y2="31.6094"/><line style="stroke:#000000;stroke-width:1.0;" x1="213" x2="400" y1="31.6094" y2="31.6094"/><text fill="#000000" font-family="sans-serif" font-size="14" font-weight="bold" lengthAdjust="spacing" textLength="65" x="218" y="48.1426">Counter2</text><text fill="#000000" font-family="sans-serif" font-size="14" lengthAdjust="spacing" textLength="12" x="295" y="48.1426">   </text><line style="stroke:#000000;stroke-width:1.0;" x1="290" x2="290" y1="31.6094" y2="53.2188"/><line style="stroke:#000000;stroke-width:1.0;" x1="213" x2="400" y1="53.2188" y2="53.2188"/><text fill="#000000" font-family="sans-serif" font-size="14" font-weight="bold" lengthAdjust="spacing" textLength="65" x="218" y="69.752">Counter3</text><text fill="#000000" font-family="sans-serif" font-size="14" lengthAdjust="spacing" textLength="12" x="295" y="69.752">   </text><line style="stroke:#000000;stroke-width:1.0;" x1="290" x2="290" y1="53.2188" y2="74.8281"/><line style="stroke:#000000;stroke-width:1.0;" x1="213" x2="400" y1="74.8281" y2="74.8281"/><text fill="#000000" font-family="sans-serif" font-size="14" font-weight="bold" lengthAdjust="spacing" textLength="10.4375" x="218" y="91.3613">…</text><text fill="#000000" font-family="sans-serif" font-size="14" lengthAdjust="spacing" textLength="10" x="295" y="91.3613">…</text><line style="stroke:#000000;stroke-width:1.0;" x1="290" x2="290" y1="74.8281" y2="96.4375"/><line style="stroke:#000000;stroke-width:1.0;" x1="213" x2="400" y1="96.4375" y2="96.4375"/><text fill="#000000" font-family="sans-serif" font-size="14" font-weight="bold" lengthAdjust="spacing" textLength="67" x="218" y="112.9707">CounterN</text><text fill="#000000" font-family="sans-serif" font-size="14" lengthAdjust="spacing" textLength="10" x="295" y="112.9707">…</text><line style="stroke:#000000;stroke-width:1.0;" x1="290" x2="290" y1="96.4375" y2="118.0469"/><rect fill="none" height="108.0469" rx="5" ry="5" style="stroke:#000000;stroke-width:1.5;" width="187" x="213" y="10"/><rect fill="#F1F1F1" height="21.6094" rx="5" ry="5" style="stroke:#F1F1F1;stroke-width:1.5;" width="150" x="522" y="16"/><text fill="#000000" font-family="sans-serif" font-size="14" font-weight="bold" lengthAdjust="spacing" textLength="30" x="527" y="32.5332">type</text><text fill="#000000" font-family="sans-serif" font-size="14" lengthAdjust="spacing" textLength="3" x="567" y="32.5332">'</text><text fill="#000000" font-family="sans-serif" font-size="14" font-style="italic" lengthAdjust="spacing" textLength="94" x="570" y="32.5332">simple function</text><text fill="#000000" font-family="sans-serif" font-size="14" lengthAdjust="spacing" textLength="3" x="664" y="32.5332">'</text><line style="stroke:#000000;stroke-width:1.0;" x1="562" x2="562" y1="16" y2="37.6094"/><rect fill="none" height="21.6094" rx="5" ry="5" style="stroke:#000000;stroke-width:1.5;" width="150" x="522" y="16"/><rect fill="#F1F1F1" height="43.2188" rx="5" ry="5" style="stroke:#F1F1F1;stroke-width:1.5;" width="320" x="437" y="56.5"/><text fill="#000000" font-family="sans-serif" font-size="14" font-weight="bold" lengthAdjust="spacing" textLength="30" x="442" y="73.0332">type</text><text fill="#000000" font-family="sans-serif" font-size="14" lengthAdjust="spacing" textLength="3" x="562" y="73.0332">'</text><text fill="#000000" font-family="sans-serif" font-size="14" font-style="italic" lengthAdjust="spacing" textLength="187" x="565" y="73.0332">Function with a parameter&lt;/&gt;'</text><line style="stroke:#000000;stroke-width:1.0;" x1="557" x2="557" y1="56.5" y2="78.1094"/><line style="stroke:#000000;stroke-width:1.0;" x1="437" x2="757" y1="78.1094" y2="78.1094"/><text fill="#000000" font-family="sans-serif" font-size="14" font-style="italic" font-weight="bold" lengthAdjust="spacing" textLength="110" x="442" y="94.6426">parameter name</text><text fill="#000000" font-family="sans-serif" font-size="14" font-style="italic" lengthAdjust="spacing" textLength="102" x="562" y="94.6426">parameter value</text><line style="stroke:#000000;stroke-width:1.0;" x1="557" x2="557" y1="78.1094" y2="99.7188"/><rect fill="none" height="43.2188" rx="5" ry="5" style="stroke:#000000;stroke-width:1.5;" width="320" x="437" y="56.5"/><path d="M388,42 L401,42 C438.3437,42 479.5827,39.2455 514.5207,36.0972 " fill="none" style="stroke:#000000;stroke-width:1.0;stroke-dasharray:3.0,3.0;"/><path d="M514.8088,39.223 L516.8651,35.8812 L514.2327,32.9713 L522.3353,35.3771 L514.8088,39.223 " fill="#000000" style="stroke:#000000;stroke-width:1.0;"/><ellipse cx="388" cy="42" fill="#000000" rx="3" ry="3" style="stroke:#000000;stroke-width:1.0;"/><path d="M388,63 L401,63 C410.3339,63 419.9112,63.1721 429.5726,63.4794 " fill="none" style="stroke:#000000;stroke-width:1.0;stroke-dasharray:3.0,3.0;"/><path d="M429.4628,66.5847 L431.9016,63.5618 L429.6825,60.3741 L437.3359,63.7541 L429.4628,66.5847 " fill="#000000" style="stroke:#000000;stroke-width:1.0;"/><ellipse cx="388" cy="63" fill="#000000" rx="3" ry="3" style="stroke:#000000;stroke-width:1.0;"/><path d="M164,64 L177,64 C186.2776,64 195.9306,64 205.5945,64 " fill="none" style="stroke:#000000;stroke-width:1.0;stroke-dasharray:3.0,3.0;"/><path d="M205.5945,67.0983 L207.9182,64 L205.5945,60.9017 L213.3401,64 L205.5945,67.0983 " fill="#000000" style="stroke:#000000;stroke-width:1.0;"/><ellipse cx="164" cy="64" fill="#000000" rx="3" ry="3" style="stroke:#000000;stroke-width:1.0;"/><!--MD5=[41bbcbd5d64298a12b67e7ad51851cb6]
@startjson
{
    "id": "Performance",
    "Counters": {
        "Counter1": "'<i>simple function</i>'",
        "Counter2": {
            "type": "'<i>simple function</i>'"
        },
        "Counter3": {
            "type": "'<i>Function with a parameter</>'",
            "<i>parameter name</i>": "<i>parameter value</i>"
        },
        "…": "…",
        "CounterN": "…"
    }
}
@endjson

PlantUML version 1.2022.7(Mon Aug 22 20:01:30 TRT 2022)
(GPL source distribution)
Java Runtime: Java(TM) SE Runtime Environment
JVM: Java HotSpot(TM) 64-Bit Server VM
Default Encoding: UTF-8
Language: en
Country: US
--></g></svg>