<?xml version="1.0" encoding="UTF-8" standalone="no"?><svg xmlns="http://www.w3.org/2000/svg" xmlns:xlink="http://www.w3.org/1999/xlink" contentStyleType="text/css" height="186px" preserveAspectRatio="none" style="width:1100px;height:186px;background:#FFFFFF;" version="1.1" viewBox="0 0 1100 186" width="1100px" zoomAndPan="magnify"><defs/><g><rect fill="#F1F1F1" height="86.4375" rx="5" ry="5" style="stroke:#F1F1F1;stroke-width:1.5;" width="209" x="10" y="55"/><text fill="#000000" font-family="sans-serif" font-size="14" font-weight="bold" lengthAdjust="spacing" textLength="30" x="15" y="71.5332">type</text><text fill="#000000" font-family="sans-serif" font-size="14" lengthAdjust="spacing" textLength="81" x="133" y="71.5332">Performance</text><line style="stroke:#000000;stroke-width:1.0;" x1="128" x2="128" y1="55" y2="76.6094"/><line style="stroke:#000000;stroke-width:1.0;" x1="10" x2="219" y1="76.6094" y2="76.6094"/><text fill="#000000" font-family="sans-serif" font-size="14" font-weight="bold" lengthAdjust="spacing" textLength="10.4375" x="15" y="93.1426">…</text><text fill="#000000" font-family="sans-serif" font-size="14" lengthAdjust="spacing" textLength="10" x="133" y="93.1426">…</text><line style="stroke:#000000;stroke-width:1.0;" x1="128" x2="128" y1="76.6094" y2="98.2188"/><line style="stroke:#000000;stroke-width:1.0;" x1="10" x2="219" y1="98.2188" y2="98.2188"/><text fill="#000000" font-family="sans-serif" font-size="14" font-weight="bold" lengthAdjust="spacing" textLength="108" x="15" y="114.752">implementation</text><text fill="#000000" font-family="sans-serif" font-size="14" lengthAdjust="spacing" textLength="12" x="133" y="114.752">   </text><line style="stroke:#000000;stroke-width:1.0;" x1="128" x2="128" y1="98.2188" y2="119.8281"/><line style="stroke:#000000;stroke-width:1.0;" x1="10" x2="219" y1="119.8281" y2="119.8281"/><text fill="#000000" font-family="sans-serif" font-size="14" font-weight="bold" lengthAdjust="spacing" textLength="10.4375" x="15" y="136.3613">…</text><text fill="#000000" font-family="sans-serif" font-size="14" lengthAdjust="spacing" textLength="10" x="133" y="136.3613">…</text><line style="stroke:#000000;stroke-width:1.0;" x1="128" x2="128" y1="119.8281" y2="141.4375"/><rect fill="none" height="86.4375" rx="5" ry="5" style="stroke:#000000;stroke-width:1.5;" width="209" x="10" y="55"/><rect fill="#F1F1F1" height="64.8281" rx="5" ry="5" style="stroke:#F1F1F1;stroke-width:1.5;" width="207" x="256" y="76.5"/><text fill="#000000" font-family="sans-serif" font-size="14" font-weight="bold" lengthAdjust="spacing" textLength="139" x="261" y="93.0332">NumberOfSamples?</text><text fill="#000000" font-family="sans-serif" font-size="14" font-style="italic" lengthAdjust="spacing" textLength="48" x="410" y="93.0332">number</text><line style="stroke:#000000;stroke-width:1.0;" x1="405" x2="405" y1="76.5" y2="98.1094"/><line style="stroke:#000000;stroke-width:1.0;" x1="256" x2="463" y1="98.1094" y2="98.1094"/><text fill="#000000" font-family="sans-serif" font-size="14" font-weight="bold" lengthAdjust="spacing" textLength="63" x="261" y="114.6426">Interval?</text><text fill="#000000" font-family="sans-serif" font-size="14" font-style="italic" lengthAdjust="spacing" textLength="48" x="410" y="114.6426">number</text><line style="stroke:#000000;stroke-width:1.0;" x1="405" x2="405" y1="98.1094" y2="119.7188"/><line style="stroke:#000000;stroke-width:1.0;" x1="256" x2="463" y1="119.7188" y2="119.7188"/><text fill="#000000" font-family="sans-serif" font-size="14" font-weight="bold" lengthAdjust="spacing" textLength="65" x="261" y="136.252">Counters</text><text fill="#000000" font-family="sans-serif" font-size="14" lengthAdjust="spacing" textLength="12" x="410" y="136.252">   </text><line style="stroke:#000000;stroke-width:1.0;" x1="405" x2="405" y1="119.7188" y2="141.3281"/><rect fill="none" height="64.8281" rx="5" ry="5" style="stroke:#000000;stroke-width:1.5;" width="207" x="256" y="76.5"/><rect fill="#F1F1F1" height="86.4375" rx="5" ry="5" style="stroke:#F1F1F1;stroke-width:1.5;" width="125" x="500" y="88"/><text fill="#000000" font-family="sans-serif" font-size="14" font-weight="bold" lengthAdjust="spacing" textLength="89" x="505" y="104.5332">Perf object 1</text><text fill="#000000" font-family="sans-serif" font-size="14" lengthAdjust="spacing" textLength="12" x="608" y="104.5332">   </text><line style="stroke:#000000;stroke-width:1.0;" x1="603" x2="603" y1="88" y2="109.6094"/><line style="stroke:#000000;stroke-width:1.0;" x1="500" x2="625" y1="109.6094" y2="109.6094"/><text fill="#000000" font-family="sans-serif" font-size="14" font-weight="bold" lengthAdjust="spacing" textLength="89" x="505" y="126.1426">Perf object 2</text><text fill="#000000" font-family="sans-serif" font-size="14" lengthAdjust="spacing" textLength="10" x="608" y="126.1426">…</text><line style="stroke:#000000;stroke-width:1.0;" x1="603" x2="603" y1="109.6094" y2="131.2188"/><line style="stroke:#000000;stroke-width:1.0;" x1="500" x2="625" y1="131.2188" y2="131.2188"/><text fill="#000000" font-family="sans-serif" font-size="14" font-weight="bold" lengthAdjust="spacing" textLength="10.4375" x="505" y="147.752">…</text><text fill="#000000" font-family="sans-serif" font-size="14" lengthAdjust="spacing" textLength="10" x="608" y="147.752">…</text><line style="stroke:#000000;stroke-width:1.0;" x1="603" x2="603" y1="131.2188" y2="152.8281"/><line style="stroke:#000000;stroke-width:1.0;" x1="500" x2="625" y1="152.8281" y2="152.8281"/><text fill="#000000" font-family="sans-serif" font-size="14" font-weight="bold" lengthAdjust="spacing" textLength="93" x="505" y="169.3613">Perf object m</text><text fill="#000000" font-family="sans-serif" font-size="14" lengthAdjust="spacing" textLength="10" x="608" y="169.3613">…</text><line style="stroke:#000000;stroke-width:1.0;" x1="603" x2="603" y1="152.8281" y2="174.4375"/><rect fill="none" height="86.4375" rx="5" ry="5" style="stroke:#000000;stroke-width:1.5;" width="125" x="500" y="88"/><rect fill="#F1F1F1" height="86.4375" rx="5" ry="5" style="stroke:#F1F1F1;stroke-width:1.5;" width="145" x="662" y="55"/><text fill="#000000" font-family="sans-serif" font-size="14" font-weight="bold" lengthAdjust="spacing" textLength="112" x="667" y="71.5332">Counter 1 Name</text><text fill="#000000" font-family="sans-serif" font-size="14" lengthAdjust="spacing" textLength="12" x="790" y="71.5332">   </text><line style="stroke:#000000;stroke-width:1.0;" x1="785" x2="785" y1="55" y2="76.6094"/><line style="stroke:#000000;stroke-width:1.0;" x1="662" x2="807" y1="76.6094" y2="76.6094"/><text fill="#000000" font-family="sans-serif" font-size="14" font-weight="bold" lengthAdjust="spacing" textLength="112" x="667" y="93.1426">Counter 2 Name</text><text fill="#000000" font-family="sans-serif" font-size="14" lengthAdjust="spacing" textLength="12" x="790" y="93.1426">   </text><line style="stroke:#000000;stroke-width:1.0;" x1="785" x2="785" y1="76.6094" y2="98.2188"/><line style="stroke:#000000;stroke-width:1.0;" x1="662" x2="807" y1="98.2188" y2="98.2188"/><text fill="#000000" font-family="sans-serif" font-size="14" font-weight="bold" lengthAdjust="spacing" textLength="10.4375" x="667" y="114.752">…</text><text fill="#000000" font-family="sans-serif" font-size="14" lengthAdjust="spacing" textLength="10" x="790" y="114.752">…</text><line style="stroke:#000000;stroke-width:1.0;" x1="785" x2="785" y1="98.2188" y2="119.8281"/><line style="stroke:#000000;stroke-width:1.0;" x1="662" x2="807" y1="119.8281" y2="119.8281"/><text fill="#000000" font-family="sans-serif" font-size="14" font-weight="bold" lengthAdjust="spacing" textLength="113" x="667" y="136.3613">Counter n Name</text><text fill="#000000" font-family="sans-serif" font-size="14" lengthAdjust="spacing" textLength="10" x="790" y="136.3613">…</text><line style="stroke:#000000;stroke-width:1.0;" x1="785" x2="785" y1="119.8281" y2="141.4375"/><rect fill="none" height="86.4375" rx="5" ry="5" style="stroke:#000000;stroke-width:1.5;" width="145" x="662" y="55"/><rect fill="#F1F1F1" height="43.2188" rx="5" ry="5" style="stroke:#F1F1F1;stroke-width:1.5;" width="132" x="844" y="22.5"/><text fill="#000000" font-family="sans-serif" font-size="14" font-weight="bold" lengthAdjust="spacing" textLength="32" x="849" y="39.0332">alias</text><text fill="#000000" font-family="sans-serif" font-size="14" font-style="italic" lengthAdjust="spacing" textLength="35" x="936" y="39.0332">string</text><line style="stroke:#000000;stroke-width:1.0;" x1="931" x2="931" y1="22.5" y2="44.1094"/><line style="stroke:#000000;stroke-width:1.0;" x1="844" x2="976" y1="44.1094" y2="44.1094"/><text fill="#000000" font-family="sans-serif" font-size="14" font-weight="bold" lengthAdjust="spacing" textLength="77" x="849" y="60.6426">instances?</text><text fill="#000000" font-family="sans-serif" font-size="14" lengthAdjust="spacing" textLength="12" x="936" y="60.6426">   </text><line style="stroke:#000000;stroke-width:1.0;" x1="931" x2="931" y1="44.1094" y2="65.7188"/><rect fill="none" height="43.2188" rx="5" ry="5" style="stroke:#000000;stroke-width:1.5;" width="132" x="844" y="22.5"/><rect fill="#F1F1F1" height="86.4375" rx="5" ry="5" style="stroke:#F1F1F1;stroke-width:1.5;" width="75" x="1013" y="10"/><text fill="#000000" font-family="sans-serif" font-size="14" lengthAdjust="spacing" textLength="65" x="1018" y="26.5332">Instance 1</text><line style="stroke:#000000;stroke-width:1.0;" x1="1013" x2="1088" y1="31.6094" y2="31.6094"/><text fill="#000000" font-family="sans-serif" font-size="14" lengthAdjust="spacing" textLength="65" x="1018" y="48.1426">Instance 2</text><line style="stroke:#000000;stroke-width:1.0;" x1="1013" x2="1088" y1="53.2188" y2="53.2188"/><text fill="#000000" font-family="sans-serif" font-size="14" lengthAdjust="spacing" textLength="10" x="1018" y="69.752">…</text><line style="stroke:#000000;stroke-width:1.0;" x1="1013" x2="1088" y1="74.8281" y2="74.8281"/><text fill="#000000" font-family="sans-serif" font-size="14" lengthAdjust="spacing" textLength="65" x="1018" y="91.3613">Instance n</text><rect fill="none" height="86.4375" rx="5" ry="5" style="stroke:#000000;stroke-width:1.5;" width="75" x="1013" y="10"/><rect fill="#F1F1F1" height="43.2188" rx="5" ry="5" style="stroke:#F1F1F1;stroke-width:1.5;" width="132" x="844" y="87.5"/><text fill="#000000" font-family="sans-serif" font-size="14" font-weight="bold" lengthAdjust="spacing" textLength="32" x="849" y="104.0332">alias</text><text fill="#000000" font-family="sans-serif" font-size="14" font-style="italic" lengthAdjust="spacing" textLength="35" x="936" y="104.0332">string</text><line style="stroke:#000000;stroke-width:1.0;" x1="931" x2="931" y1="87.5" y2="109.1094"/><line style="stroke:#000000;stroke-width:1.0;" x1="844" x2="976" y1="109.1094" y2="109.1094"/><text fill="#000000" font-family="sans-serif" font-size="14" font-weight="bold" lengthAdjust="spacing" textLength="77" x="849" y="125.6426">instances?</text><text fill="#000000" font-family="sans-serif" font-size="14" lengthAdjust="spacing" textLength="12" x="936" y="125.6426">   </text><line style="stroke:#000000;stroke-width:1.0;" x1="931" x2="931" y1="109.1094" y2="130.7188"/><rect fill="none" height="43.2188" rx="5" ry="5" style="stroke:#000000;stroke-width:1.5;" width="132" x="844" y="87.5"/><rect fill="#F1F1F1" height="15" rx="5" ry="5" style="stroke:#F1F1F1;stroke-width:1.5;" width="30" x="1038.5" y="114"/><rect fill="none" height="15" rx="5" ry="5" style="stroke:#000000;stroke-width:1.5;" width="30" x="1038.5" y="114"/><path d="M964,55 L977,55 C986.2116,55 996.0746,54.8389 1005.4773,54.6081 " fill="none" style="stroke:#000000;stroke-width:1.0;stroke-dasharray:3.0,3.0;"/><path d="M1005.5606,57.7144 L1007.807,54.5457 L1005.394,51.5019 L1013.2429,54.3999 L1005.5606,57.7144 " fill="#000000" style="stroke:#000000;stroke-width:1.0;"/><ellipse cx="964" cy="55" fill="#000000" rx="3" ry="3" style="stroke:#000000;stroke-width:1.0;"/><path d="M795,65 L808,65 C817.3713,65 827.1303,64.1309 836.7313,62.7464 " fill="none" style="stroke:#000000;stroke-width:1.0;stroke-dasharray:3.0,3.0;"/><path d="M837.217,65.8086 L839.028,62.3822 L836.2457,59.6842 L844.3869,61.5323 L837.217,65.8086 " fill="#000000" style="stroke:#000000;stroke-width:1.0;"/><ellipse cx="795" cy="65" fill="#000000" rx="3" ry="3" style="stroke:#000000;stroke-width:1.0;"/><path d="M964,120 L977,120 C995.2291,120 1016.0092,120.6309 1030.7244,121.184 " fill="none" style="stroke:#000000;stroke-width:1.0;stroke-dasharray:3.0,3.0;"/><path d="M1030.5999,124.3433 L1033.0939,121.2774 L1030.8489,118.0247 L1038.6226,121.4953 L1030.5999,124.3433 " fill="#000000" style="stroke:#000000;stroke-width:1.0;"/><ellipse cx="964" cy="120" fill="#000000" rx="3" ry="3" style="stroke:#000000;stroke-width:1.0;"/><path d="M795,87 L808,87 C817.3901,87 827.1601,87.9104 836.767,89.3609 " fill="none" style="stroke:#000000;stroke-width:1.0;stroke-dasharray:3.0,3.0;"/><path d="M836.2582,92.4246 L839.0648,89.7425 L837.2758,86.2972 L844.4262,90.6329 L836.2582,92.4246 " fill="#000000" style="stroke:#000000;stroke-width:1.0;"/><ellipse cx="795" cy="87" fill="#000000" rx="3" ry="3" style="stroke:#000000;stroke-width:1.0;"/><path d="M613,98 L626,98 C635.2468,98 644.939,98 654.5617,98 " fill="none" style="stroke:#000000;stroke-width:1.0;stroke-dasharray:3.0,3.0;"/><path d="M654.5617,101.077 L656.8695,98 L654.5617,94.923 L662.2543,98 L654.5617,101.077 " fill="#000000" style="stroke:#000000;stroke-width:1.0;"/><ellipse cx="613" cy="98" fill="#000000" rx="3" ry="3" style="stroke:#000000;stroke-width:1.0;"/><path d="M451,131 L464,131 C473.2633,131 483.0191,131 492.6389,131 " fill="none" style="stroke:#000000;stroke-width:1.0;stroke-dasharray:3.0,3.0;"/><path d="M492.6389,134.0695 L494.941,131 L492.6389,127.9305 L500.3126,131 L492.6389,134.0695 " fill="#000000" style="stroke:#000000;stroke-width:1.0;"/><ellipse cx="451" cy="131" fill="#000000" rx="3" ry="3" style="stroke:#000000;stroke-width:1.0;"/><path d="M207,109 L220,109 C229.2352,109 238.8155,109 248.4314,109 " fill="none" style="stroke:#000000;stroke-width:1.0;stroke-dasharray:3.0,3.0;"/><path d="M248.4314,112.0854 L250.7454,109 L248.4314,105.9146 L256.1449,109 L248.4314,112.0854 " fill="#000000" style="stroke:#000000;stroke-width:1.0;"/><ellipse cx="207" cy="109" fill="#000000" rx="3" ry="3" style="stroke:#000000;stroke-width:1.0;"/><!--MD5=[430b5f6ada1eb5a432205bd0f618560f]
@startjson
{
    "type": "Performance",
    "…": "…",
    "implementation":{
        "NumberOfSamples?": "<i>number</i>",
        "Interval?": "<i>number</i>",
        "Counters": {
            "Perf object 1": {
                "Counter 1 Name": {
                    "alias": "<i>string</i>",
                    "instances?": [
                        "Instance 1",
                        "Instance 2",
                        "…",
                        "Instance n"
                    ]
                },
                "Counter 2 Name": {
                    "alias": "<i>string</i>",
                    "instances?": [
                    ]
                },
                "…": "…",
                "Counter n Name": "…"
            },
            "Perf object 2": "…",
            "…": "…",
            "Perf object m": "…"
        }
    },
    "…": "…"
}
@endjson

PlantUML version 1.2022.7(Mon Aug 22 20:01:30 TRT 2022)
(GPL source distribution)
Java Runtime: Java(TM) SE Runtime Environment
JVM: Java HotSpot(TM) 64-Bit Server VM
Default Encoding: UTF-8
Language: en
Country: US
--></g></svg>