<?xml version="1.0" encoding="UTF-8" standalone="no"?><svg xmlns="http://www.w3.org/2000/svg" xmlns:xlink="http://www.w3.org/1999/xlink" contentStyleType="text/css" height="169px" preserveAspectRatio="none" style="width:498px;height:169px;background:#FFFFFF;" version="1.1" viewBox="0 0 498 169" width="498px" zoomAndPan="magnify"><defs/><g><rect fill="#F1F1F1" height="86.4375" rx="5" ry="5" style="stroke:#F1F1F1;stroke-width:1.5;" width="214" x="10" y="19.5"/><text fill="#000000" font-family="sans-serif" font-size="14" font-weight="bold" lengthAdjust="spacing" textLength="13" x="15" y="36.0332">id</text><text fill="#000000" font-family="sans-serif" font-size="14" font-style="italic" lengthAdjust="spacing" textLength="56" x="102" y="36.0332">Probe ID</text><line style="stroke:#000000;stroke-width:1.0;" x1="97" x2="97" y1="19.5" y2="41.1094"/><line style="stroke:#000000;stroke-width:1.0;" x1="10" x2="224" y1="41.1094" y2="41.1094"/><text fill="#000000" font-family="sans-serif" font-size="14" font-weight="bold" lengthAdjust="spacing" textLength="41" x="15" y="57.6426">alias?</text><text fill="#000000" font-family="sans-serif" font-size="14" font-style="italic" lengthAdjust="spacing" textLength="117" x="102" y="57.6426">Alternative local ID</text><line style="stroke:#000000;stroke-width:1.0;" x1="97" x2="97" y1="41.1094" y2="62.7188"/><line style="stroke:#000000;stroke-width:1.0;" x1="10" x2="224" y1="62.7188" y2="62.7188"/><text fill="#000000" font-family="sans-serif" font-size="14" font-weight="bold" lengthAdjust="spacing" textLength="60" x="15" y="79.252">params?</text><text fill="#000000" font-family="sans-serif" font-size="14" lengthAdjust="spacing" textLength="12" x="102" y="79.252">   </text><line style="stroke:#000000;stroke-width:1.0;" x1="97" x2="97" y1="62.7188" y2="84.3281"/><line style="stroke:#000000;stroke-width:1.0;" x1="10" x2="224" y1="84.3281" y2="84.3281"/><text fill="#000000" font-family="sans-serif" font-size="14" font-weight="bold" lengthAdjust="spacing" textLength="77" x="15" y="100.8613">transform?</text><text fill="#000000" font-family="sans-serif" font-size="14" lengthAdjust="spacing" textLength="12" x="102" y="100.8613">   </text><line style="stroke:#000000;stroke-width:1.0;" x1="97" x2="97" y1="84.3281" y2="105.9375"/><rect fill="none" height="86.4375" rx="5" ry="5" style="stroke:#000000;stroke-width:1.5;" width="214" x="10" y="19.5"/><rect fill="#F1F1F1" height="64.8281" rx="5" ry="5" style="stroke:#F1F1F1;stroke-width:1.5;" width="225" x="261" y="10"/><text fill="#000000" font-family="sans-serif" font-size="14" font-weight="bold" lengthAdjust="spacing" textLength="59" x="266" y="26.5332">param_1</text><text fill="#000000" font-family="sans-serif" font-size="14" font-style="italic" lengthAdjust="spacing" textLength="146" x="335" y="26.5332">Expression for param 1</text><line style="stroke:#000000;stroke-width:1.0;" x1="330" x2="330" y1="10" y2="31.6094"/><line style="stroke:#000000;stroke-width:1.0;" x1="261" x2="486" y1="31.6094" y2="31.6094"/><text fill="#000000" font-family="sans-serif" font-size="14" font-weight="bold" lengthAdjust="spacing" textLength="59" x="266" y="48.1426">param_2</text><text fill="#000000" font-family="sans-serif" font-size="14" font-style="italic" lengthAdjust="spacing" textLength="146" x="335" y="48.1426">Expression for param 2</text><line style="stroke:#000000;stroke-width:1.0;" x1="330" x2="330" y1="31.6094" y2="53.2188"/><line style="stroke:#000000;stroke-width:1.0;" x1="261" x2="486" y1="53.2188" y2="53.2188"/><text fill="#000000" font-family="sans-serif" font-size="14" font-weight="bold" lengthAdjust="spacing" textLength="10.4375" x="266" y="69.752">…</text><text fill="#000000" font-family="sans-serif" font-size="14" lengthAdjust="spacing" textLength="10" x="335" y="69.752">…</text><line style="stroke:#000000;stroke-width:1.0;" x1="330" x2="330" y1="53.2188" y2="74.8281"/><rect fill="none" height="64.8281" rx="5" ry="5" style="stroke:#000000;stroke-width:1.5;" width="225" x="261" y="10"/><rect fill="#F1F1F1" height="64.8281" rx="5" ry="5" style="stroke:#F1F1F1;stroke-width:1.5;" width="118" x="314.5" y="93"/><text fill="#000000" font-family="sans-serif" font-size="14" lengthAdjust="spacing" textLength="108" x="319.5" y="109.5332">Transformation 1</text><line style="stroke:#000000;stroke-width:1.0;" x1="314.5" x2="432.5" y1="114.6094" y2="114.6094"/><text fill="#000000" font-family="sans-serif" font-size="14" lengthAdjust="spacing" textLength="108" x="319.5" y="131.1426">Transformation 2</text><line style="stroke:#000000;stroke-width:1.0;" x1="314.5" x2="432.5" y1="136.2188" y2="136.2188"/><text fill="#000000" font-family="sans-serif" font-size="14" lengthAdjust="spacing" textLength="10" x="319.5" y="152.752">…</text><rect fill="none" height="64.8281" rx="5" ry="5" style="stroke:#000000;stroke-width:1.5;" width="118" x="314.5" y="93"/><path d="M212,73.5 L225,73.5 C234.3215,73.5 243.9045,72.9036 253.497,71.8763 " fill="none" style="stroke:#000000;stroke-width:1.0;stroke-dasharray:3.0,3.0;"/><path d="M253.8623,74.9524 L255.8041,71.6023 L253.1318,68.8002 L261.1873,70.9631 L253.8623,74.9524 " fill="#000000" style="stroke:#000000;stroke-width:1.0;"/><ellipse cx="212" cy="73.5" fill="#000000" rx="3" ry="3" style="stroke:#000000;stroke-width:1.0;"/><path d="M212,94.5 L225,94.5 C252.358,94.5 281.968,99.6372 307.4629,105.729 " fill="none" style="stroke:#000000;stroke-width:1.0;stroke-dasharray:3.0,3.0;"/><path d="M306.7317,108.6985 L309.69,106.2774 L308.1941,102.7596 L314.8865,107.5569 L306.7317,108.6985 " fill="#000000" style="stroke:#000000;stroke-width:1.0;"/><ellipse cx="212" cy="94.5" fill="#000000" rx="3" ry="3" style="stroke:#000000;stroke-width:1.0;"/><!--MD5=[86c6cd47e7a6e7bf1a522b8a56999230]
@startjson
{
    "id": "<i>Probe ID</i>",
    "alias?": "<i>Alternative local ID</i>",
    "params?": {
        "param_1": "<i>Expression for param 1</i>",
        "param_2": "<i>Expression for param 2</i>",
        "…": "…"
    },
    "transform?": [
        "Transformation 1",
        "Transformation 2",
        "…"
    ]
}
@endjson

PlantUML version 1.2022.7(Mon Aug 22 20:01:30 TRT 2022)
(GPL source distribution)
Java Runtime: Java(TM) SE Runtime Environment
JVM: Java HotSpot(TM) 64-Bit Server VM
Default Encoding: UTF-8
Language: en
Country: US
--></g></svg>