<?xml version="1.0" encoding="UTF-8" standalone="no"?><svg xmlns="http://www.w3.org/2000/svg" xmlns:xlink="http://www.w3.org/1999/xlink" contentStyleType="text/css" height="191px" preserveAspectRatio="none" style="width:526px;height:191px;background:#FFFFFF;" version="1.1" viewBox="0 0 526 191" width="526px" zoomAndPan="magnify"><defs/><g><rect fill="#F1F1F1" height="108.0469" rx="5" ry="5" style="stroke:#F1F1F1;stroke-width:1.5;" width="228" x="10" y="14"/><text fill="#000000" font-family="sans-serif" font-size="14" font-weight="bold" lengthAdjust="spacing" textLength="38" x="15" y="30.5332">name</text><text fill="#000000" font-family="sans-serif" font-size="14" font-style="italic" lengthAdjust="spacing" textLength="87" x="133" y="30.5332">Ruleset name</text><line style="stroke:#000000;stroke-width:1.0;" x1="128" x2="128" y1="14" y2="35.6094"/><line style="stroke:#000000;stroke-width:1.0;" x1="10" x2="238" y1="35.6094" y2="35.6094"/><text fill="#000000" font-family="sans-serif" font-size="14" font-weight="bold" lengthAdjust="spacing" textLength="54" x="15" y="52.1426">version</text><text fill="#000000" font-family="sans-serif" font-size="14" font-style="italic" lengthAdjust="spacing" textLength="97" x="133" y="52.1426">Ruleset version</text><line style="stroke:#000000;stroke-width:1.0;" x1="128" x2="128" y1="35.6094" y2="57.2188"/><line style="stroke:#000000;stroke-width:1.0;" x1="10" x2="238" y1="57.2188" y2="57.2188"/><text fill="#000000" font-family="sans-serif" font-size="14" font-weight="bold" lengthAdjust="spacing" textLength="108" x="15" y="73.752">schemaVersion</text><text fill="#000000" font-family="sans-serif" font-size="14" font-style="italic" lengthAdjust="spacing" textLength="100" x="133" y="73.752">Schema version</text><line style="stroke:#000000;stroke-width:1.0;" x1="128" x2="128" y1="57.2188" y2="78.8281"/><line style="stroke:#000000;stroke-width:1.0;" x1="10" x2="238" y1="78.8281" y2="78.8281"/><text fill="#000000" font-family="sans-serif" font-size="14" font-weight="bold" lengthAdjust="spacing" textLength="45" x="15" y="95.3613">rules?</text><text fill="#000000" font-family="sans-serif" font-size="14" lengthAdjust="spacing" textLength="12" x="133" y="95.3613">   </text><line style="stroke:#000000;stroke-width:1.0;" x1="128" x2="128" y1="78.8281" y2="100.4375"/><line style="stroke:#000000;stroke-width:1.0;" x1="10" x2="238" y1="100.4375" y2="100.4375"/><text fill="#000000" font-family="sans-serif" font-size="14" font-weight="bold" lengthAdjust="spacing" textLength="59" x="15" y="116.9707">probes?</text><text fill="#000000" font-family="sans-serif" font-size="14" lengthAdjust="spacing" textLength="12" x="133" y="116.9707">   </text><line style="stroke:#000000;stroke-width:1.0;" x1="128" x2="128" y1="100.4375" y2="122.0469"/><rect fill="none" height="108.0469" rx="5" ry="5" style="stroke:#000000;stroke-width:1.5;" width="228" x="10" y="14"/><rect fill="#F1F1F1" height="86.4375" rx="5" ry="5" style="stroke:#F1F1F1;stroke-width:1.5;" width="48" x="293.5" y="10"/><text fill="#000000" font-family="sans-serif" font-size="14" font-style="italic" lengthAdjust="spacing" textLength="37" x="298.5" y="26.5332">rule A</text><line style="stroke:#000000;stroke-width:1.0;" x1="293.5" x2="341.5" y1="31.6094" y2="31.6094"/><text fill="#000000" font-family="sans-serif" font-size="14" font-style="italic" lengthAdjust="spacing" textLength="37" x="298.5" y="48.1426">rule B</text><line style="stroke:#000000;stroke-width:1.0;" x1="293.5" x2="341.5" y1="53.2188" y2="53.2188"/><text fill="#000000" font-family="sans-serif" font-size="14" font-style="italic" lengthAdjust="spacing" textLength="38" x="298.5" y="69.752">rule C</text><line style="stroke:#000000;stroke-width:1.0;" x1="293.5" x2="341.5" y1="74.8281" y2="74.8281"/><text fill="#000000" font-family="sans-serif" font-size="14" lengthAdjust="spacing" textLength="14" x="298.5" y="91.3613">…</text><rect fill="none" height="86.4375" rx="5" ry="5" style="stroke:#000000;stroke-width:1.5;" width="48" x="293.5" y="10"/><rect fill="#F1F1F1" height="64.8281" rx="5" ry="5" style="stroke:#F1F1F1;stroke-width:1.5;" width="85" x="275" y="114.5"/><text fill="#000000" font-family="sans-serif" font-size="14" font-style="italic" font-weight="bold" lengthAdjust="spacing" textLength="51" x="280" y="131.0332">probe 1</text><text fill="#000000" font-family="sans-serif" font-size="14" lengthAdjust="spacing" textLength="12" x="341" y="131.0332">   </text><line style="stroke:#000000;stroke-width:1.0;" x1="336" x2="336" y1="114.5" y2="136.1094"/><line style="stroke:#000000;stroke-width:1.0;" x1="275" x2="360" y1="136.1094" y2="136.1094"/><text fill="#000000" font-family="sans-serif" font-size="14" font-style="italic" font-weight="bold" lengthAdjust="spacing" textLength="51" x="280" y="152.6426">probe 2</text><text fill="#000000" font-family="sans-serif" font-size="14" lengthAdjust="spacing" textLength="14" x="341" y="152.6426">…</text><line style="stroke:#000000;stroke-width:1.0;" x1="336" x2="336" y1="136.1094" y2="157.7188"/><line style="stroke:#000000;stroke-width:1.0;" x1="275" x2="360" y1="157.7188" y2="157.7188"/><text fill="#000000" font-family="sans-serif" font-size="14" font-weight="bold" lengthAdjust="spacing" textLength="15" x="280" y="174.252">…</text><text fill="#000000" font-family="sans-serif" font-size="14" lengthAdjust="spacing" textLength="14" x="341" y="174.252">…</text><line style="stroke:#000000;stroke-width:1.0;" x1="336" x2="336" y1="157.7188" y2="179.3281"/><rect fill="none" height="64.8281" rx="5" ry="5" style="stroke:#000000;stroke-width:1.5;" width="85" x="275" y="114.5"/><rect fill="#F1F1F1" height="64.8281" rx="5" ry="5" style="stroke:#F1F1F1;stroke-width:1.5;" width="117" x="397" y="92.5"/><text fill="#000000" font-family="sans-serif" font-size="14" font-style="italic" lengthAdjust="spacing" textLength="107" x="402" y="109.0332">implementation 1</text><line style="stroke:#000000;stroke-width:1.0;" x1="397" x2="514" y1="114.1094" y2="114.1094"/><text fill="#000000" font-family="sans-serif" font-size="14" font-style="italic" lengthAdjust="spacing" textLength="107" x="402" y="130.6426">implementation 2</text><line style="stroke:#000000;stroke-width:1.0;" x1="397" x2="514" y1="135.7188" y2="135.7188"/><text fill="#000000" font-family="sans-serif" font-size="14" lengthAdjust="spacing" textLength="14" x="402" y="152.252">…</text><rect fill="none" height="64.8281" rx="5" ry="5" style="stroke:#000000;stroke-width:1.5;" width="117" x="397" y="92.5"/><path d="M226,89 L239,89 C255.9185,89 273.1587,81.9314 287.1135,74.0585 " fill="none" style="stroke:#000000;stroke-width:1.0;stroke-dasharray:3.0,3.0;"/><path d="M288.6743,76.6869 L289.0848,72.8879 L285.5527,71.4302 L293.6844,70.1565 L288.6743,76.6869 " fill="#000000" style="stroke:#000000;stroke-width:1.0;"/><ellipse cx="226" cy="89" fill="#000000" rx="3" ry="3" style="stroke:#000000;stroke-width:1.0;"/><path d="M348,125 L361,125 C370.2715,125 380.0574,125 389.6727,125 " fill="none" style="stroke:#000000;stroke-width:1.0;stroke-dasharray:3.0,3.0;"/><path d="M389.6727,128.0647 L391.9712,125 L389.6727,121.9353 L397.3344,125 L389.6727,128.0647 " fill="#000000" style="stroke:#000000;stroke-width:1.0;"/><ellipse cx="348" cy="125" fill="#000000" rx="3" ry="3" style="stroke:#000000;stroke-width:1.0;"/><path d="M226,111 L239,111 C248.8645,111 258.8383,113.403 268.2065,116.9674 " fill="none" style="stroke:#000000;stroke-width:1.0;stroke-dasharray:3.0,3.0;"/><path d="M267.0339,119.781 L270.3167,117.8468 L269.3791,114.1538 L275.2406,119.8989 L267.0339,119.781 " fill="#000000" style="stroke:#000000;stroke-width:1.0;"/><ellipse cx="226" cy="111" fill="#000000" rx="3" ry="3" style="stroke:#000000;stroke-width:1.0;"/><!--MD5=[bac8f66c12b176e6af666f9c6701126f]
@startjson
{
     "name": "<i>Ruleset name</i>",
     "version": "<i>Ruleset version</i>",
     "schemaVersion": "<i>Schema version</i>",
     "rules?":[
          "<i>rule A</i>",
          "<i>rule B</i>",
          "<i>rule C</i>",
          "…"

     ],
     "probes?":{
          "<i>probe 1</i>": [
               "<i>implementation 1</i>",
               "<i>implementation 2</i>",
               "…"
          ],
          "<i>probe 2</i>": "…",
          "…": "…"
     }
}
@endjson

PlantUML version 1.2022.5(Sat Apr 30 13:55:52 EET 2022)
(GPL source distribution)
Java Runtime: Java(TM) SE Runtime Environment
JVM: Java HotSpot(TM) 64-Bit Server VM
Default Encoding: Cp1251
Language: en
Country: US
--></g></svg>